<?xml version="1.0" encoding="UTF-8" standalone="no"?>
<!-- Created with Inkscape (http://www.inkscape.org/) -->

<svg
   version="1.1"
   id="svg2"
   width="1000"
   height="666.66669"
   viewBox="0 0 1000 666.66669"
   sodipodi:docname="5180051.eps"
   xmlns:inkscape="http://www.inkscape.org/namespaces/inkscape"
   xmlns:sodipodi="http://sodipodi.sourceforge.net/DTD/sodipodi-0.dtd"
   xmlns="http://www.w3.org/2000/svg"
   xmlns:svg="http://www.w3.org/2000/svg">
  <defs
     id="defs6" />
  <sodipodi:namedview
     id="namedview4"
     pagecolor="#ffffff"
     bordercolor="#000000"
     borderopacity="0.25"
     inkscape:showpageshadow="2"
     inkscape:pageopacity="0.0"
     inkscape:pagecheckerboard="0"
     inkscape:deskcolor="#d1d1d1" />
  <g
     id="g8"
     inkscape:groupmode="layer"
     inkscape:label="ink_ext_XXXXXX"
     transform="matrix(1.3333333,0,0,-1.3333333,0,666.66667)">
    <g
       id="g10"
       transform="scale(0.1)">
      <path
         d="M -171.398,1236.12 1133.6,2059.45 1588.6,615.699 Z"
         style="fill:#13384e;fill-opacity:1;fill-rule:nonzero;stroke:none"
         id="path12" />
      <path
         d="M -146.398,1239.45 1583.6,619.449 423.602,-580.551 Z"
         style="fill:#16304b;fill-opacity:1;fill-rule:nonzero;stroke:none"
         id="path14" />
      <path
         d="m 1133.6,2059.45 870,-980 -420,-460.001 z"
         style="fill:#0ea3a2;fill-opacity:1;fill-rule:nonzero;stroke:none"
         id="path16" />
      <path
         d="m 1133.6,2059.45 420,280 450,-1260 z"
         style="fill:#0f6679;fill-opacity:1;fill-rule:nonzero;stroke:none"
         id="path18" />
      <path
         d="m 1553.6,2339.45 850,-940 -400,-320 z"
         style="fill:#70cebf;fill-opacity:1;fill-rule:nonzero;stroke:none"
         id="path20" />
      <path
         d="m 1553.6,2339.45 1050,-570 -200,-370 z"
         style="fill:#a8e1d4;fill-opacity:1;fill-rule:nonzero;stroke:none"
         id="path22" />
      <path
         d="m -116.398,2359.45 1249.998,-300 -1279.998,-820 z"
         style="fill:#183553;fill-opacity:1;fill-rule:nonzero;stroke:none"
         id="path24" />
      <path
         d="m -116.398,2359.45 838.332,93.33 411.666,-393.33 z"
         style="fill:#3fbeb3;fill-opacity:1;fill-rule:nonzero;stroke:none"
         id="path26" />
      <path
         d="m 148.602,3421.95 575,-972.5 -733.33638,213.34 z"
         style="fill:#3fbeb3;fill-opacity:1;fill-rule:nonzero;stroke:none"
         id="path28" />
      <path
         d="m 2403.6,1399.45 820,56.67 -620,313.33 z"
         style="fill:#3fbeb3;fill-opacity:1;fill-rule:nonzero;stroke:none"
         id="path30" />
      <path
         d="m 2456.93,682.781 -873.33,-63.332 420,460.001 z"
         style="fill:#3fbeb3;fill-opacity:1;fill-rule:nonzero;stroke:none"
         id="path32" />
      <path
         d="m 2003.6,1079.45 400,320 53.49,-716.981 z"
         style="fill:#15b1a9;fill-opacity:1;fill-rule:nonzero;stroke:none"
         id="path34" />
      <path
         d="m 2403.6,1399.45 510,-680.001 310,736.671 z"
         style="fill:#70cebf;fill-opacity:1;fill-rule:nonzero;stroke:none"
         id="path36" />
      <path
         d="m 2403.6,1399.45 53.33,-716.669 456.67,36.668 z"
         style="fill:#52c2be;fill-opacity:1;fill-rule:nonzero;stroke:none"
         id="path38" />
      <path
         d="M 3223.6,1456.12 2913.6,719.449 4290.27,462.781 Z"
         style="fill:#89d7cf;fill-opacity:1;fill-rule:nonzero;stroke:none"
         id="path40" />
      <path
         d="m 2913.6,719.449 -190,-1130 1566.67,873.332 z"
         style="fill:#15b1a9;fill-opacity:1;fill-rule:nonzero;stroke:none"
         id="path42" />
      <path
         d="m 3223.6,1456.12 1033.33,-113.34 33.34,-879.999 z"
         style="fill:#a8e1d4;fill-opacity:1;fill-rule:nonzero;stroke:none"
         id="path44" />
      <path
         d="m 3223.6,1456.12 910,103.33 123.33,-216.67 z"
         style="fill:#d6e7e8;fill-opacity:1;fill-rule:nonzero;stroke:none"
         id="path46" />
      <path
         d="m -86.3984,3819.45 810.0004,-1370 225,990 z"
         style="fill:#15b1a9;fill-opacity:1;fill-rule:nonzero;stroke:none"
         id="path48" />
      <path
         d="m 948.602,3439.45 604.998,-1100 -829.998,110 z"
         style="fill:#a8e1d4;fill-opacity:1;fill-rule:nonzero;stroke:none"
         id="path50" />
      <path
         d="m 723.602,2449.45 829.998,-110 -420,-280 z"
         style="fill:#15b1a9;fill-opacity:1;fill-rule:nonzero;stroke:none"
         id="path52" />
      <path
         d="m 1553.6,2339.45 -604.998,1100 974.998,-240 z"
         style="fill:#c7e5df;fill-opacity:1;fill-rule:nonzero;stroke:none"
         id="path54" />
      <path
         d="m 1923.6,3199.45 680,-1430 -1050,570 z"
         style="fill:#9fd9cd;fill-opacity:1;fill-rule:nonzero;stroke:none"
         id="path56" />
      <path
         d="m 2603.6,1769.45 1180,270 -560,-583.33 z"
         style="fill:#ddede3;fill-opacity:1;fill-rule:nonzero;stroke:none"
         id="path58" />
      <path
         d="m 3783.6,2039.45 350,-480 -910,-103.33 z"
         style="fill:#f3edf0;fill-opacity:1;fill-rule:nonzero;stroke:none"
         id="path60" />
      <path
         d="m 1923.6,3199.45 300,1100 -1274.998,-860 z"
         style="fill:#9fd9cd;fill-opacity:1;fill-rule:nonzero;stroke:none"
         id="path62" />
      <path
         d="m -86.3984,3819.45 580.0004,850 455,-1230 z"
         style="fill:#9fd9cd;fill-opacity:1;fill-rule:nonzero;stroke:none"
         id="path64" />
      <path
         d="m 2153.6,-230.551 300,440 270,-620 z"
         style="fill:#16304b;fill-opacity:1;fill-rule:nonzero;stroke:none"
         id="path66" />
      <path
         d="M 4290.27,462.781 2723.6,-410.551 4290.27,-577.219 4263.6,449.449 4290.27,-577.219"
         style="fill:#0ea3a2;fill-opacity:1;fill-rule:nonzero;stroke:none"
         id="path68" />
      <path
         d="m 4290.27,-577.219 586.66,680 826.67,-166.6599 z"
         style="fill:#16304b;fill-opacity:1;fill-rule:nonzero;stroke:none"
         id="path70" />
      <path
         d="m 1583.6,619.449 870,-410 -600,-940 z"
         style="fill:#0f6679;fill-opacity:1;fill-rule:nonzero;stroke:none"
         id="path72" />
      <path
         d="m 1583.6,619.449 873.33,63.332 -3.33,-473.332 z"
         style="fill:#a8e1d4;fill-opacity:1;fill-rule:nonzero;stroke:none"
         id="path74" />
      <path
         d="m -86.3984,3819.45 580.0004,850 -620,430 z"
         style="fill:#d6e7e8;fill-opacity:1;fill-rule:nonzero;stroke:none"
         id="path76" />
      <path
         d="m 493.602,4669.45 1729.998,-370 -1274.998,-860 z"
         style="fill:#a8e1d4;fill-opacity:1;fill-rule:nonzero;stroke:none"
         id="path78" />
      <path
         d="M 493.602,4669.45 1114.64,5228.41 2223.6,4299.45 Z"
         style="fill:#70cebf;fill-opacity:1;fill-rule:nonzero;stroke:none"
         id="path80" />
      <path
         d="m 1588.6,621.949 292.5,-1352.5 -1457.498,150 z"
         style="fill:#0ea3a2;fill-opacity:1;fill-rule:nonzero;stroke:none"
         id="path82" />
      <path
         d="m 2453.6,209.449 460,510 -456.67,-36.668 z"
         style="fill:#0ea3a2;fill-opacity:1;fill-rule:nonzero;stroke:none"
         id="path84" />
      <path
         d="m 1923.6,3199.45 1860,-1160 -1180,-270 z"
         style="fill:#f3edf0;fill-opacity:1;fill-rule:nonzero;stroke:none"
         id="path86" />
      <path
         d="m -126.398,5099.45 620,-430 621.038,558.96 z"
         style="fill:#f3edf0;fill-opacity:1;fill-rule:nonzero;stroke:none"
         id="path88" />
      <path
         d="m 2453.6,209.449 270,-620 190,1130 z"
         style="fill:#70cebf;fill-opacity:1;fill-rule:nonzero;stroke:none"
         id="path90" />
      <path
         d="M 4256.93,1342.78 5363.6,851.949 4290.27,462.781 Z"
         style="fill:#89d7cf;fill-opacity:1;fill-rule:nonzero;stroke:none"
         id="path92" />
      <path
         d="M 5603.6,2422.78 4256.93,1342.78 5363.6,851.949 Z"
         style="fill:#ddede3;fill-opacity:1;fill-rule:nonzero;stroke:none"
         id="path94" />
      <path
         d="m 4133.6,1559.45 1470,863.33 -1346.67,-1080 z"
         style="fill:#f3edf0;fill-opacity:1;fill-rule:nonzero;stroke:none"
         id="path96" />
      <path
         d="m 5363.6,851.949 540,264.171 -300,1306.66 z"
         style="fill:#a8e1d4;fill-opacity:1;fill-rule:nonzero;stroke:none"
         id="path98" />
      <path
         d="m 5603.6,2422.78 1293.33,-1313.33 -993.33,6.67 z"
         style="fill:#f3edf0;fill-opacity:1;fill-rule:nonzero;stroke:none"
         id="path100" />
      <path
         d="m 5903.6,1116.12 1060,-776.671 -66.67,770.001 z"
         style="fill:#a8e1d4;fill-opacity:1;fill-rule:nonzero;stroke:none"
         id="path102" />
      <path
         d="m 5363.6,851.949 -486.67,-749.168 -586.66,360 z"
         style="fill:#52c2be;fill-opacity:1;fill-rule:nonzero;stroke:none"
         id="path104" />
      <path
         d="M 5703.6,-63.8789 4876.93,102.781 5363.6,851.949 Z"
         style="fill:#0ea3a2;fill-opacity:1;fill-rule:nonzero;stroke:none"
         id="path106" />
      <path
         d="m 4290.27,-577.219 v 1040 l 586.66,-360 z"
         style="fill:#0f6679;fill-opacity:1;fill-rule:nonzero;stroke:none"
         id="path108" />
      <path
         d="m 5363.6,851.949 87.5,-247.5 252.5,-668.3279 200,1179.9989 -540,-264.171"
         style="fill:#89d7cf;fill-opacity:1;fill-rule:nonzero;stroke:none"
         id="path110" />
      <path
         d="m 6963.6,339.449 -1260,-403.3279 200,1179.9989 z"
         style="fill:#52c2be;fill-opacity:1;fill-rule:nonzero;stroke:none"
         id="path112" />
      <path
         d="m 6896.93,1109.45 1446.67,-200.001 -1380,-570 z"
         style="fill:#f3edf0;fill-opacity:1;fill-rule:nonzero;stroke:none"
         id="path114" />
      <path
         d="m 6963.6,339.449 -160,-596.668 680,-240 860,1406.668 -1380,-570"
         style="fill:#ddede3;fill-opacity:1;fill-rule:nonzero;stroke:none"
         id="path116" />
      <path
         d="M 5703.6,-63.8789 6716.93,-583.879 6963.6,339.449 Z"
         style="fill:#89d7cf;fill-opacity:1;fill-rule:nonzero;stroke:none"
         id="path118" />
      <path
         d="m -93.0664,2692.79 816.6684,-243.34 -840,-90 z"
         style="fill:#0f6679;fill-opacity:1;fill-rule:nonzero;stroke:none"
         id="path120" />
      <path
         d="m 423.602,-580.551 -960,36.672 396.664,1873.329 563.336,-1933.329"
         style="fill:#13384e;fill-opacity:1;fill-rule:nonzero;stroke:none"
         id="path122" />
      <path
         d="M -86.3984,3819.45 148.602,3421.95 -6.39844,2669.45 -279.734,2751.12 -86.3984,3819.45"
         style="fill:#70cebf;fill-opacity:1;fill-rule:nonzero;stroke:none"
         id="path124" />
      <path
         d="m 4153.6,1699.45 -220,380 810,40 z"
         style="fill:#ddede3;fill-opacity:1;fill-rule:nonzero;stroke:none"
         id="path126" />
      <path
         d="m 6904.34,1523.59 -479.97,1244.94 974.95,-689.96 z"
         style="fill:#ddede3;fill-opacity:1;fill-rule:nonzero;stroke:none"
         id="path128" />
      <path
         d="m 7413.6,3079.45 -10,-260 -320,150 z"
         style="fill:#f3edf0;fill-opacity:1;fill-rule:nonzero;stroke:none"
         id="path130" />
      <path
         d="m 2103.6,3282.79 300.97,1060.66 584.97,-269.98 z"
         style="fill:#ddede3;fill-opacity:1;fill-rule:nonzero;stroke:none"
         id="path132" />
      <path
         d="m 6033.6,2579.45 200,-500 -454.2,389.1 z"
         style="fill:#f3edf0;fill-opacity:1;fill-rule:nonzero;stroke:none"
         id="path134" />
      <path
         d="m 7253.6,3129.45 450,180 -240,160 z"
         style="fill:#f3edf0;fill-opacity:1;fill-rule:nonzero;stroke:none"
         id="path136" />
      <path
         d="m 1553.6,5311.11 820,-696.67 359.99,696.67 z"
         style="fill:#f3edf0;fill-opacity:1;fill-rule:nonzero;stroke:none"
         id="path138" />
      <path
         d="m 4044.47,2311.05 404.98,119.99 -180.85,219.25 z"
         style="fill:#f3edf0;fill-opacity:1;fill-rule:nonzero;stroke:none"
         id="path140" />
      <path
         d="m 2749.56,3713.48 329.98,329.99 449.98,-164.99 z"
         style="fill:#f3edf0;fill-opacity:1;fill-rule:nonzero;stroke:none"
         id="path142" />
      <path
         d="m 2123.6,3209.45 1500,-206.66 -186.67,-406.67 z"
         style="fill:#f3edf0;fill-opacity:1;fill-rule:nonzero;stroke:none"
         id="path144" />
      <path
         d="M -295.293,4133.46 619.66,3833.48 493.602,4669.45 Z"
         style="fill:none;stroke:#16304b;stroke-width:5;stroke-linecap:round;stroke-linejoin:round;stroke-miterlimit:10;stroke-dasharray:none;stroke-opacity:1"
         id="path146" />
      <path
         d="m 605.559,3847.58 778.041,221.87 -434.998,-630 z"
         style="fill:none;stroke:#16304b;stroke-width:5;stroke-linecap:round;stroke-linejoin:round;stroke-miterlimit:10;stroke-dasharray:none;stroke-opacity:1"
         id="path148" />
      <path
         d="m 493.602,4669.45 1729.998,-370 -1108.96,928.96 z"
         style="fill:none;stroke:#16304b;stroke-width:5;stroke-linecap:round;stroke-linejoin:round;stroke-miterlimit:10;stroke-dasharray:none;stroke-opacity:1"
         id="path150" />
      <path
         d="m 479.738,4683.79 c 7.789,7.78 20.414,7.78 28.2,0 7.785,-7.79 7.785,-20.41 0,-28.2 -7.786,-7.79 -20.411,-7.79 -28.2,0 -7.789,7.79 -7.789,20.41 0,28.2"
         style="fill:#16304b;fill-opacity:1;fill-rule:nonzero;stroke:none"
         id="path152" />
      <path
         d="m 591.461,3861.68 c 7.789,7.79 20.41,7.79 28.199,0 7.789,-7.79 7.789,-20.41 0,-28.2 -7.789,-7.79 -20.41,-7.79 -28.199,0 -7.789,7.79 -7.789,20.41 0,28.2"
         style="fill:#16304b;fill-opacity:1;fill-rule:nonzero;stroke:none"
         id="path154" />
      <path
         d="m 934.496,3453.55 c 7.789,7.79 20.418,7.79 28.207,0 7.785,-7.79 7.785,-20.41 0,-28.2 -7.789,-7.79 -20.418,-7.79 -28.207,0 -7.785,7.79 -7.785,20.41 0,28.2"
         style="fill:#16304b;fill-opacity:1;fill-rule:nonzero;stroke:none"
         id="path156" />
      <path
         d="m 2405.4,4509.45 c 7.78,7.79 20.41,7.79 28.2,0 7.79,-7.79 7.79,-20.41 0,-28.2 -7.79,-7.79 -20.42,-7.79 -28.2,0 -7.79,7.79 -7.79,20.41 0,28.2"
         style="fill:#16304b;fill-opacity:1;fill-rule:nonzero;stroke:none"
         id="path158" />
      <path
         d="m 2970.26,4477.65 c 7.79,7.79 20.42,7.79 28.21,0 7.79,-7.78 7.79,-20.41 0,-28.2 -7.79,-7.79 -20.42,-7.79 -28.21,0 -7.78,7.79 -7.78,20.42 0,28.2"
         style="fill:#16304b;fill-opacity:1;fill-rule:nonzero;stroke:none"
         id="path160" />
      <path
         d="m 3117.67,3897.29 c 4.72,4.72 12.38,4.72 17.1,0 4.72,-4.72 4.72,-12.39 0,-17.11 -4.72,-4.72 -12.38,-4.72 -17.1,0 -4.72,4.72 -4.72,12.39 0,17.11"
         style="fill:#16304b;fill-opacity:1;fill-rule:nonzero;stroke:none"
         id="path162" />
      <path
         d="m 6098.73,1666.12 c 7.79,7.78 20.42,7.78 28.2,0 7.79,-7.79 7.79,-20.42 0,-28.2 -7.78,-7.8 -20.41,-7.8 -28.2,0 -7.79,7.78 -7.79,20.41 0,28.2"
         style="fill:#16304b;fill-opacity:1;fill-rule:nonzero;stroke:none"
         id="path164" />
      <path
         d="m 6885.4,1122.65 c 7.79,7.79 20.42,7.79 28.2,0 7.78,-7.79 7.78,-20.42 0,-28.2 -7.78,-7.78 -20.41,-7.78 -28.2,0 -7.79,7.78 -7.79,20.41 0,28.2"
         style="fill:#16304b;fill-opacity:1;fill-rule:nonzero;stroke:none"
         id="path166" />
      <path
         d="m 5345.4,866.121 c 7.79,7.781 20.42,7.781 28.2,0 7.78,-7.789 7.78,-20.422 0,-28.199 -7.78,-7.801 -20.41,-7.801 -28.2,0 -7.79,7.777 -7.79,20.41 0,28.199"
         style="fill:#16304b;fill-opacity:1;fill-rule:nonzero;stroke:none"
         id="path168" />
      <path
         d="m 1905.4,3219.45 c 7.78,7.79 20.41,7.79 28.2,0 7.79,-7.79 7.79,-20.41 0,-28.2 -7.79,-7.79 -20.42,-7.79 -28.2,0 -7.79,7.79 -7.79,20.41 0,28.2"
         style="fill:#16304b;fill-opacity:1;fill-rule:nonzero;stroke:none"
         id="path170" />
      <path
         d="m 135.398,3437.65 c 7.786,7.79 20.415,7.79 28.204,0 7.785,-7.78 7.785,-20.41 0,-28.2 -7.789,-7.79 -20.418,-7.79 -28.204,0 -7.789,7.79 -7.789,20.42 0,28.2"
         style="fill:#16304b;fill-opacity:1;fill-rule:nonzero;stroke:none"
         id="path172" />
      <path
         d="m 2752.83,4873.55 c 7.79,7.79 20.42,7.79 28.21,0 7.78,-7.79 7.78,-20.41 0,-28.2 -7.79,-7.79 -20.42,-7.79 -28.21,0 -7.78,7.79 -7.78,20.41 0,28.2"
         style="fill:#16304b;fill-opacity:1;fill-rule:nonzero;stroke:none"
         id="path174" />
      <path
         d="m 800.398,2832.65 c 7.786,7.79 20.415,7.79 28.204,0 7.785,-7.78 7.785,-20.41 0,-28.2 -7.789,-7.79 -20.418,-7.79 -28.204,0 -7.789,7.79 -7.789,20.42 0,28.2"
         style="fill:#16304b;fill-opacity:1;fill-rule:nonzero;stroke:none"
         id="path176" />
      <path
         d="m 2209.5,4313.55 c 7.79,7.79 20.41,7.79 28.2,0 7.79,-7.79 7.79,-20.41 0,-28.2 -7.79,-7.79 -20.41,-7.79 -28.2,0 -7.79,7.79 -7.79,20.41 0,28.2"
         style="fill:#16304b;fill-opacity:1;fill-rule:nonzero;stroke:none"
         id="path178" />
      <path
         d="m 3426.8,2993.75 c 7.79,7.79 20.42,7.79 28.2,0 7.79,-7.79 7.79,-20.42 0,-28.2 -7.78,-7.79 -20.41,-7.79 -28.2,0 -7.79,7.78 -7.79,20.41 0,28.2"
         style="fill:#16304b;fill-opacity:1;fill-rule:nonzero;stroke:none"
         id="path180" />
      <path
         d="m 3496.16,2390.22 c 7.79,7.78 20.42,7.78 28.21,0 7.78,-7.79 7.78,-20.42 0,-28.2 -7.79,-7.79 -20.42,-7.79 -28.21,0 -7.78,7.78 -7.78,20.41 0,28.2"
         style="fill:#16304b;fill-opacity:1;fill-rule:nonzero;stroke:none"
         id="path182" />
      <path
         d="m 1991.65,1096.4 c 7.78,7.79 20.41,7.79 28.2,0 7.79,-7.79 7.79,-20.42 0,-28.2 -7.79,-7.78 -20.42,-7.78 -28.2,0 -7.79,7.78 -7.79,20.41 0,28.2"
         style="fill:#16304b;fill-opacity:1;fill-rule:nonzero;stroke:none"
         id="path184" />
      <path
         d="m 4241.93,1359.32 c 7.79,7.79 20.42,7.79 28.2,0 7.8,-7.79 7.8,-20.42 0,-28.2 -7.78,-7.79 -20.41,-7.79 -28.2,0 -7.78,7.78 -7.78,20.41 0,28.2"
         style="fill:#16304b;fill-opacity:1;fill-rule:nonzero;stroke:none"
         id="path186" />
      <path
         d="m 3209.5,1470.22 c 7.79,7.78 20.41,7.78 28.2,0 7.79,-7.79 7.79,-20.42 0,-28.2 -7.79,-7.79 -20.41,-7.79 -28.2,0 -7.79,7.78 -7.79,20.41 0,28.2"
         style="fill:#16304b;fill-opacity:1;fill-rule:nonzero;stroke:none"
         id="path188" />
      <path
         d="m 1528.1,2366.23 c 10.9,10.9 28.57,10.9 39.47,0 10.9,-10.9 10.9,-28.58 0,-39.48 -10.9,-10.89 -28.57,-10.89 -39.47,0 -10.91,10.9 -10.91,28.58 0,39.48"
         style="fill:#16304b;fill-opacity:1;fill-rule:nonzero;stroke:none"
         id="path190" />
      <path
         d="m 2380.6,1413.73 c 10.9,10.9 28.57,10.9 39.47,0 10.9,-10.9 10.9,-28.58 0,-39.48 -10.9,-10.89 -28.57,-10.89 -39.47,0 -10.91,10.9 -10.91,28.58 0,39.48"
         style="fill:#16304b;fill-opacity:1;fill-rule:nonzero;stroke:none"
         id="path192" />
      <path
         d="m 3290.4,2608.75 c 7.78,7.79 20.41,7.79 28.2,0 7.79,-7.79 7.79,-20.42 0,-28.2 -7.79,-7.79 -20.42,-7.79 -28.2,0 -7.79,7.78 -7.79,20.41 0,28.2"
         style="fill:#16304b;fill-opacity:1;fill-rule:nonzero;stroke:none"
         id="path194" />
      <path
         d="m 3762.86,2172.47 c 4.89,4.89 12.82,4.89 17.71,0 4.9,-4.89 4.9,-12.82 0,-17.72 -4.89,-4.89 -12.82,-4.89 -17.71,0 -4.89,4.9 -4.89,12.83 0,17.72"
         style="fill:#16304b;fill-opacity:1;fill-rule:nonzero;stroke:none"
         id="path196" />
      <path
         d="m 3825.89,2749.66 c 4.89,4.89 12.82,4.89 17.71,0 4.89,-4.89 4.89,-12.82 0,-17.71 -4.89,-4.89 -12.82,-4.89 -17.71,0 -4.89,4.89 -4.89,12.82 0,17.71"
         style="fill:#16304b;fill-opacity:1;fill-rule:nonzero;stroke:none"
         id="path198" />
      <path
         d="m 3772.55,2049.45 c 4.9,4.89 12.83,4.89 17.72,0 4.88,-4.89 4.88,-12.82 0,-17.71 -4.89,-4.89 -12.82,-4.89 -17.72,0 -4.89,4.89 -4.89,12.82 0,17.71"
         style="fill:#16304b;fill-opacity:1;fill-rule:nonzero;stroke:none"
         id="path200" />
      <path
         d="m 2595.89,1779.45 c 4.89,4.89 12.82,4.89 17.71,0 4.89,-4.89 4.89,-12.82 0,-17.71 -4.89,-4.89 -12.82,-4.89 -17.71,0 -4.89,4.89 -4.89,12.82 0,17.71"
         style="fill:#16304b;fill-opacity:1;fill-rule:nonzero;stroke:none"
         id="path202" />
      <path
         d="m 4825.89,2792.79 c 4.89,4.88 12.82,4.88 17.71,0 4.89,-4.9 4.89,-12.83 0,-17.72 -4.89,-4.89 -12.82,-4.89 -17.71,0 -4.89,4.89 -4.89,12.82 0,17.72"
         style="fill:#16304b;fill-opacity:1;fill-rule:nonzero;stroke:none"
         id="path204" />
      <path
         d="m 5593.6,2427.16 c 4.89,4.89 12.82,4.89 17.71,0 4.89,-4.89 4.89,-12.82 0,-17.71 -4.89,-4.89 -12.82,-4.89 -17.71,0 -4.89,4.89 -4.89,12.82 0,17.71"
         style="fill:#16304b;fill-opacity:1;fill-rule:nonzero;stroke:none"
         id="path206" />
      <path
         d="m 4415.89,1077.16 c 4.89,4.89 12.82,4.89 17.71,0 4.89,-4.89 4.89,-12.82 0,-17.71 -4.89,-4.89 -12.82,-4.89 -17.71,0 -4.89,4.89 -4.89,12.82 0,17.71"
         style="fill:#16304b;fill-opacity:1;fill-rule:nonzero;stroke:none"
         id="path208" />
      <path
         d="m 1369.5,4083.55 c 7.79,7.79 20.41,7.79 28.2,0 7.79,-7.79 7.79,-20.41 0,-28.2 -7.79,-7.79 -20.41,-7.79 -28.2,0 -7.79,7.79 -7.79,20.41 0,28.2"
         style="fill:#16304b;fill-opacity:1;fill-rule:nonzero;stroke:none"
         id="path210" />
      <path
         d="m -261.398,3884.45 1210,-445 -225,-990 -1215,365"
         style="fill:none;stroke:#16304b;stroke-width:5;stroke-linecap:round;stroke-linejoin:round;stroke-miterlimit:10;stroke-dasharray:none;stroke-opacity:1"
         id="path212" />
      <path
         d="m 3833.6,2739.45 -323.34,-363.33 263.34,-216.67 -330,830 -140,-400 -700,-820 -1050,570 -604.998,1100 1274.998,860 195,195 565,-35 140,-563.33"
         style="fill:none;stroke:#16304b;stroke-width:5;stroke-linecap:round;stroke-linejoin:round;stroke-miterlimit:10;stroke-dasharray:none;stroke-opacity:1"
         id="path214" />
      <path
         d="m 1553.6,2339.45 -420,-280 870,-980 z"
         style="fill:none;stroke:#16304b;stroke-width:5;stroke-linecap:round;stroke-linejoin:round;stroke-miterlimit:10;stroke-dasharray:none;stroke-opacity:1"
         id="path216" />
      <path
         d="m 1133.6,2059.45 -409.998,390 829.998,-110 370,860 300,1100"
         style="fill:none;stroke:#16304b;stroke-width:5;stroke-linecap:round;stroke-linejoin:round;stroke-miterlimit:10;stroke-dasharray:none;stroke-opacity:1"
         id="path218" />
      <path
         d="m 2003.6,1079.45 400,320 53.33,-716.669 z"
         style="fill:none;stroke:#16304b;stroke-width:5;stroke-linecap:round;stroke-linejoin:round;stroke-miterlimit:10;stroke-dasharray:none;stroke-opacity:1"
         id="path220" />
      <path
         d="m 2418.6,4494.45 348.33,365"
         style="fill:none;stroke:#16304b;stroke-width:5;stroke-linecap:round;stroke-linejoin:round;stroke-miterlimit:10;stroke-dasharray:none;stroke-opacity:1"
         id="path222" />
      <path
         d="m -9.73438,2662.79 158.33638,759.16 660,-602.5 744.998,-480 850,-940 820,56.67 1066.67,-993.339"
         style="fill:none;stroke:#16304b;stroke-width:5;stroke-linecap:round;stroke-linejoin:round;stroke-miterlimit:10;stroke-dasharray:none;stroke-opacity:1"
         id="path224" />
      <path
         d="m 493.84,4669.69 454.762,-1230.24 974.998,-240"
         style="fill:none;stroke:#16304b;stroke-width:5;stroke-linecap:round;stroke-linejoin:round;stroke-miterlimit:10;stroke-dasharray:none;stroke-opacity:1"
         id="path226" />
      <path
         d="m 808.602,2819.45 1114.998,380"
         style="fill:none;stroke:#16304b;stroke-width:5;stroke-linecap:round;stroke-linejoin:round;stroke-miterlimit:10;stroke-dasharray:none;stroke-opacity:1"
         id="path228" />
      <path
         d="M 2003.6,1079.45 1583.6,619.449 406.102,-598.051"
         style="fill:none;stroke:#16304b;stroke-width:5;stroke-linecap:round;stroke-linejoin:round;stroke-miterlimit:10;stroke-dasharray:none;stroke-opacity:1"
         id="path230" />
      <path
         d="m 4836.93,2782.79 216.67,-283.34 263.33,-83.33 286.67,6.66 -1346.67,-1080 33.34,-879.999 -1376.67,256.668 -510,680.001 200,370 -680,1430 1380,-610"
         style="fill:none;stroke:#16304b;stroke-width:5;stroke-linecap:round;stroke-linejoin:round;stroke-miterlimit:10;stroke-dasharray:none;stroke-opacity:1"
         id="path232" />
      <path
         d="M 4256.93,1342.78 3223.6,1456.12 2913.6,719.449 2456.93,682.781"
         style="fill:none;stroke:#16304b;stroke-width:5;stroke-linecap:round;stroke-linejoin:round;stroke-miterlimit:10;stroke-dasharray:none;stroke-opacity:1"
         id="path234" />
      <path
         d="m 5044.85,2512.16 c 4.89,4.89 12.82,4.89 17.71,0 4.89,-4.89 4.89,-12.82 0,-17.71 -4.89,-4.89 -12.82,-4.89 -17.71,0 -4.89,4.89 -4.89,12.82 0,17.71"
         style="fill:#16304b;fill-opacity:1;fill-rule:nonzero;stroke:none"
         id="path236" />
      <path
         d="m 5310.89,2429.45 c 4.89,4.89 12.82,4.89 17.71,0 4.89,-4.89 4.89,-12.82 0,-17.71 -4.89,-4.89 -12.82,-4.89 -17.71,0 -4.89,4.89 -4.89,12.82 0,17.71"
         style="fill:#16304b;fill-opacity:1;fill-rule:nonzero;stroke:none"
         id="path238" />
      <path
         d="m 5143.39,2839.66 c 4.89,4.89 12.82,4.89 17.71,0 4.89,-4.89 4.89,-12.82 0,-17.71 -4.89,-4.89 -12.82,-4.89 -17.71,0 -4.89,4.89 -4.89,12.82 0,17.71"
         style="fill:#16304b;fill-opacity:1;fill-rule:nonzero;stroke:none"
         id="path240" />
      <path
         d="m 4594.74,2253.31 c 4.9,4.89 12.82,4.89 17.72,0 4.89,-4.9 4.89,-12.82 0,-17.72 -4.9,-4.89 -12.82,-4.89 -17.72,0 -4.89,4.9 -4.89,12.82 0,17.72"
         style="fill:#16304b;fill-opacity:1;fill-rule:nonzero;stroke:none"
         id="path242" />
      <path
         d="m 4125.89,1567.16 c 4.89,4.89 12.82,4.89 17.71,0 4.89,-4.89 4.89,-12.82 0,-17.71 -4.89,-4.89 -12.82,-4.89 -17.71,0 -4.89,4.89 -4.89,12.82 0,17.71"
         style="fill:#16304b;fill-opacity:1;fill-rule:nonzero;stroke:none"
         id="path244" />
      <path
         d="m 4133.6,1559.45 -910,-103.33 1200,-386.67 z"
         style="fill:none;stroke:#16304b;stroke-width:5;stroke-linecap:round;stroke-linejoin:round;stroke-miterlimit:10;stroke-dasharray:none;stroke-opacity:1"
         id="path246" />
      <path
         d="m 5603.6,2422.78 -240,-1570.831 540,264.171 z"
         style="fill:none;stroke:#16304b;stroke-width:5;stroke-linecap:round;stroke-linejoin:round;stroke-miterlimit:10;stroke-dasharray:none;stroke-opacity:1"
         id="path248" />
      <path
         d="m 5153.6,2829.45 -550,-585 -346.67,-901.67 1106.67,-490.831 750,797.501 -510,773.33 1293.33,-1313.33"
         style="fill:none;stroke:#16304b;stroke-width:5;stroke-linecap:round;stroke-linejoin:round;stroke-miterlimit:10;stroke-dasharray:none;stroke-opacity:1"
         id="path250" />
      <path
         d="m 5903.6,1116.12 -200,-1179.9989 1260,403.3279"
         style="fill:none;stroke:#16304b;stroke-width:5;stroke-linecap:round;stroke-linejoin:round;stroke-miterlimit:10;stroke-dasharray:none;stroke-opacity:1"
         id="path252" />
      <path
         d="m 5894.74,1124.98 c 4.9,4.88 12.82,4.88 17.72,0 4.89,-4.9 4.89,-12.82 0,-17.72 -4.9,-4.89 -12.82,-4.89 -17.72,0 -4.89,4.9 -4.89,12.82 0,17.72"
         style="fill:#16304b;fill-opacity:1;fill-rule:nonzero;stroke:none"
         id="path254" />
      <path
         d="m 7103.6,1416.12 -206.67,-306.67 66.67,-770.001 -1060,776.671 993.33,-6.67 1446.67,-200.001"
         style="fill:none;stroke:#16304b;stroke-width:5;stroke-linecap:round;stroke-linejoin:round;stroke-miterlimit:10;stroke-dasharray:none;stroke-opacity:1"
         id="path256" />
      <path
         d="m 7094.74,1424.98 c 4.9,4.88 12.82,4.88 17.72,0 4.89,-4.9 4.89,-12.82 0,-17.72 -4.9,-4.89 -12.82,-4.89 -17.72,0 -4.89,4.9 -4.89,12.82 0,17.72"
         style="fill:#16304b;fill-opacity:1;fill-rule:nonzero;stroke:none"
         id="path258" />
      <path
         d="m 7041.41,1904.97 c 4.89,4.89 12.82,4.89 17.71,0 4.89,-4.89 4.89,-12.81 0,-17.71 -4.89,-4.89 -12.82,-4.89 -17.71,0 -4.89,4.9 -4.89,12.82 0,17.71"
         style="fill:#16304b;fill-opacity:1;fill-rule:nonzero;stroke:none"
         id="path260" />
      <path
         d="m 6544.02,1719.45 c 4.88,4.89 12.82,4.89 17.7,0 4.9,-4.89 4.9,-12.82 0,-17.71 -4.88,-4.89 -12.82,-4.89 -17.7,0 -4.89,4.89 -4.89,12.82 0,17.71"
         style="fill:#16304b;fill-opacity:1;fill-rule:nonzero;stroke:none"
         id="path262" />
      <path
         d="m 4280.89,472.16 c 4.89,4.891 12.82,4.891 17.71,0 4.89,-4.89 4.89,-12.82 0,-17.711 -4.89,-4.89 -12.82,-4.89 -17.71,0 -4.89,4.891 -4.89,12.821 0,17.711"
         style="fill:#16304b;fill-opacity:1;fill-rule:nonzero;stroke:none"
         id="path264" />
      <path
         d="m 3223.6,1456.12 560,583.33 -1180,-270"
         style="fill:none;stroke:#16304b;stroke-width:5;stroke-linecap:round;stroke-linejoin:round;stroke-miterlimit:10;stroke-dasharray:none;stroke-opacity:1"
         id="path266" />
      <path
         d="m 7103.6,1416.12 -553.33,293.33 500,186.67"
         style="fill:none;stroke:#16304b;stroke-width:5;stroke-linecap:round;stroke-linejoin:round;stroke-miterlimit:10;stroke-dasharray:none;stroke-opacity:1"
         id="path268" />
      <path
         d="m 2449.22,693.832 c 4.89,4.887 12.82,4.887 17.71,0 4.89,-4.891 4.89,-12.832 0,-17.711 -4.89,-4.891 -12.82,-4.891 -17.71,0 -4.89,4.879 -4.89,12.82 0,17.711"
         style="fill:#16304b;fill-opacity:1;fill-rule:nonzero;stroke:none"
         id="path270" />
      <path
         d="m 1578.39,627.16 c 4.89,4.891 12.82,4.891 17.71,0 4.89,-4.89 4.89,-12.82 0,-17.711 -4.89,-4.89 -12.82,-4.89 -17.71,0 -4.89,4.891 -4.89,12.821 0,17.711"
         style="fill:#16304b;fill-opacity:1;fill-rule:nonzero;stroke:none"
         id="path272" />
    </g>
  </g>
</svg>
